<?xml version="1.0" encoding="UTF-8"?>
<svg id="Capa_2" data-name="Capa 2" xmlns="http://www.w3.org/2000/svg" viewBox="0 0 713.19 713.21" style="fill: white;">
  <g id="Capa_1-2" data-name="Capa 1">
    <path d="m356.53,713.21C159.8,713.51.2,553.68,0,356.16-.2,160.32,159.65.22,355.6,0c197.3-.22,357.41,159.05,357.59,355.69.18,197.7-158.96,357.21-356.66,357.52Zm-226.21-197.05c1.76,4.22,3.5,8.44,5.29,12.65,2.92,6.85,6.91,13.45,8.48,20.59,1.39,6.29,5.58,10.07,9.2,14.18,4.69,5.33,11.57,8.27,16.69,13.6,3.78,3.94,7.78,8.43,13.39,10.42.35.13.65.47.92.76,6.6,6.9,15.75,9.57,23.68,14.27,5.58,3.3,11.38,6.24,16.98,9.52,4.48,2.63,8.72,5.67,13.21,8.26,5.61,3.23,11.37,6.18,17.06,9.28.69.38,1.27.96,1.96,1.32,3.11,1.63,6.2,3.32,9.39,4.79,3.54,1.63,7.39,2.7,10.72,4.65,3.28,1.92,6.36,3.92,10.31,3.88,2.74-.03,5.48.07,8.21-.02,10.75-.37,20.2,5.33,24.31,16.05.73,1.9,1.53,2.57,3.5,2.79,20.6,2.21,41.2,2.19,61.83.48,3.45-.29,6.49-.63,7.17-4.85.14-.84.74-1.61,1.16-2.39,4.45-8.38,14.62-13.1,23.55-11.95,4.56.58,8.86.46,12.95-1.63,2.61-1.33,4.97-3.2,7.65-4.37,3.58-1.57,7.55-2.31,10.99-4.1,5.81-3.03,11.31-6.64,16.99-9.92,3.65-2.11,7.4-4.05,11.08-6.11,6.15-3.46,12.28-6.96,18.43-10.43,5.99-3.39,12.07-6.62,17.95-10.18,7.15-4.31,14.33-8.61,21.12-13.45,3.71-2.64,6.52-6.53,9.99-9.57,3.04-2.66,6.6-4.72,9.62-7.39,3.45-3.05,6.73-6.34,9.76-9.8,1.57-1.79,2.72-4.09,3.57-6.35,2.11-5.58,3.69-11.36,5.95-16.87,2.18-5.34,4.96-10.45,7.41-15.68.39-.82.48-1.79.78-2.96-1.23.53-2.08.82-2.86,1.24-7.56,4.14-15.09,3.91-22.64-.07-14.85-7.82-17.49-28.5-3.61-40.31,3.39-2.89,7.03-5.88,9.3-9.6,3.67-6.01,6.44-12.58,9.3-19.05,1.98-4.47,3.2-9.28,5.22-13.72,1.81-3.97,3.33-7.67,2.87-12.31-.49-4.94.25-9.99.45-15,.21-5.32.56-10.64.56-15.95,0-5.42-.32-10.84-.56-16.25-.27-5.97-1.88-11.67-4.38-17.02-1.77-3.8-4.17-7.33-6.49-10.84-.93-1.41-2.03-2.33-4.43-1.82-3.38.73-7.11.7-10.55.12-11.63-1.93-19.24-11.9-19.34-22.63-.05-5.49.98-11.03,2.01-16.46.61-3.23,2.5-6.2,3.22-9.42,1.73-7.77,3.06-15.61,2.54-23.66-.23-3.63-.04-7.29-.04-10.93,0-1.11.04-2.21.05-3.32.02-1.94.01-3.87.04-5.81.03-2.2.09-4.4.11-6.6.02-1.75.17-3.53-.04-5.26-.57-4.6-1.88-9.19-1.84-13.77.09-8.06-4.43-14.13-7.97-20.59-2.35-4.29-5.72-8.01-8.48-12.1-2.3-3.41-4.34-7-6.56-10.46-1.27-1.99-5.74-2.76-7.65-1.49-2.46,1.64-4.94,3.26-7.46,4.81-15.12,9.24-33.93-.1-36.45-16.3-.71-4.54-1.96-9-2.89-13.51-.32-1.54-.35-3.13-.68-4.67-.74-3.54-1.94-7.03-2.3-10.6-.51-4.94-.93-9.81-3.13-14.36-2.22-4.57-4.27-9.23-6.45-13.82-2.06-4.32-4.06-8.68-6.32-12.9-2.59-4.85-5.19-9.73-8.26-14.28-2.45-3.62-5.3-7.1-8.53-10.03-3.41-3.08-7.72-5.16-11.2-8.17-5.66-4.9-12.65-6.52-19.43-8.77-2.6-.86-5.26-1.58-7.77-2.66-2.96-1.27-5.79-2.85-8.67-4.31-6.02-3.05-12.32-4.82-19.14-4.61-3.82.12-7.65.08-11.48.04-6.08-.07-11.74,1.54-17.15,4.18-3.88,1.89-7.71,3.88-11.6,5.74-1.32.63-2.73,1.1-4.14,1.5-4.05,1.15-8.45,1.59-12.09,3.5-5.64,2.96-10.97,6.63-16.03,10.52-3.63,2.79-6.76,6.29-9.81,9.74-2.44,2.76-4.75,5.74-6.51,8.96-2.47,4.54-4.21,9.47-6.55,14.09-2.8,5.53-6.03,10.84-8.84,16.36-1.5,2.95-2.76,6.08-3.66,9.27-2.02,7.19-.9,14.82-4.02,22.05-2.27,5.26-2.19,11.52-3.31,17.31-2.22,11.56-11.63,18.53-22.17,19.37-8.3.66-14.73-3.79-21.18-8.03-2.11-1.39-6.62-1.38-7.9.49-1.98,2.91-3.65,6.02-5.62,8.94-2.16,3.18-4.71,6.11-6.72,9.38-2.57,4.18-4.81,8.57-7.12,12.9-.9,1.69-1.94,3.41-2.38,5.24-1.16,4.87-2.33,9.77-2.93,14.72-.48,3.99-.11,8.09-.17,12.13-.03,2.19-.18,4.39-.29,6.58-.07,1.39-.26,2.79-.2,4.17.09,2.18.52,4.36.49,6.53-.07,4.81-.78,9.65-.41,14.42.41,5.37,1.51,10.72,2.69,16,.87,3.89,2.54,7.6,3.5,11.48.56,2.29.03,4.87.67,7.12,1.27,4.46,1.82,8.8.91,13.45-2.53,12.91-15.96,21.45-27.68,18.7-4.22-.99-5.42-.38-7.44,3.54-.63,1.22-1.17,2.59-2.11,3.55-5.14,5.31-5.92,12.46-7.31,19.02-1.35,6.39-.8,13.2-.81,19.83,0,6.02.33,12.05.57,18.07.12,2.99.48,5.98.55,8.97.05,2.08-.23,4.17-.33,6.26-.03.56-.09,1.18.09,1.69,2.03,5.72,3.93,11.49,6.21,17.1,2.14,5.28,5.04,10.26,7,15.59,2.56,6.99,7.34,12.41,12.62,17.04,7.7,6.75,11.49,14.43,9.51,24.6-2.24,11.49-11.59,18.49-22.2,19.34-5.45.44-10.33-1.41-15.5-3.63Zm504.47-27.37c71.83-144.92,12.77-338.91-149.21-411.93.48,1.68.68,3.37,1.41,4.79,4.43,8.74,9.18,17.32,13.4,26.15,1.66,3.48,1.78,7.69,3.46,11.16,2.31,4.78,3.56,9.61,3.23,15.25,2.81,0,5.4-.04,7.99.01,2.2.04,4.44-.09,6.57.33,3.34.67,6.56,2,9.91,2.59,7.21,1.27,13.39,4.09,17.61,10.35.93,1.39,1.87,2.78,2.94,4.06,2.37,2.87,5.03,5.52,7.17,8.54,3.05,4.32,5.7,8.92,8.6,13.35,1.62,2.47,3.51,4.77,5.07,7.27.93,1.48,1.41,3.24,2.19,4.83,3.53,7.18,7.1,14.34,10.64,21.51.25.52.4,1.11.49,1.68,1.23,7.99,2.45,15.97,3.63,23.97.28,1.86.57,3.74.57,5.61,0,2.08-.55,4.15-.52,6.22.1,6.23.43,12.45.53,18.67.03,2.07-.44,4.14-.51,6.22-.1,2.93.01,5.88-.06,8.81-.03,1.26-.39,2.51-.44,3.77-.09,2.64.11,5.3-.16,7.91-.28,2.81-.97,5.58-1.31,7.47,3.42,2.78,6.32,4.86,8.85,7.32,1.52,1.48,2.37,3.62,3.67,5.34,3.33,4.41,6.92,8.64,10.08,13.18,2.01,2.88,3.4,6.18,5.1,9.28,1.79,3.26,4.23,6.32,5.32,9.8,2.45,7.83,4.35,15.84,6.21,23.84.65,2.78.61,5.73.69,8.61.04,1.46-.55,2.94-.52,4.41.12,6.02.44,12.04.53,18.07.03,2.17-.51,4.35-.53,6.53-.08,6.47-.03,12.95-.06,19.42,0,.47-.37.92-.45,1.4-.22,1.44-.75,2.97-.49,4.33.91,4.77.07,9.2-1.79,13.59-2.22,5.24-4.31,10.53-6.34,15.84-.65,1.71-.91,3.57-1.35,5.41,11.77,4.17,17.44,12.47,17.85,25.01Zm-539.93-24.87c0-.53.14-1.07-.02-1.51-2.27-6.26-4.34-12.6-6.96-18.71-1.76-4.11-2.75-8.2-2.67-12.64.09-5.06.13-10.12-.05-15.17-.25-6.69-.82-13.36-1.09-20.05-.08-2.06.55-4.15.52-6.22-.09-5.52-.8-11.07-.44-16.55.37-5.56,1.51-11.1,2.73-16.56.89-3.99,2.4-7.85,3.7-11.74.99-2.97,1.9-5.99,3.22-8.81.82-1.75,2.47-3.1,3.5-4.78,3.29-5.35,6.3-10.88,9.73-16.13,2.05-3.14,4.54-6.02,7.09-8.78,2.19-2.37,4.48-4.84,7.2-6.46,2.75-1.65,2.84-3.24,2.14-6-.84-3.33-1-6.84-1.32-10.28-.17-1.81,0-3.65-.09-5.47-.12-2.18-.54-4.35-.51-6.52.09-5.52.52-11.04.52-16.56,0-5.42-.64-10.85-.47-16.25.13-4.01,1.16-7.99,1.71-11.99.75-5.48.82-11.14,2.3-16.41,1.75-6.24,4.52-12.23,7.19-18.17,1.72-3.84,3.91-7.49,6.15-11.06,2.14-3.41,4.73-6.55,6.91-9.94,2.97-4.62,5.52-9.53,8.68-14.01,2.41-3.43,5.35-6.53,8.3-9.54,2.6-2.65,5.18-5.8,8.42-7.24,5.58-2.48,11.64-3.97,17.58-5.52,2.55-.67,5.33-.54,8-.64,2.66-.1,5.33-.02,8.19-.02-.54-5.64.6-10.39,2.98-14.88.27-.5.35-1.11.53-1.66,1.22-3.81,2.35-7.66,3.71-11.42.46-1.26,1.67-2.23,2.27-3.46,3.33-6.76,6.61-13.56,9.86-20.37.72-1.5,1.27-3.09,2.11-5.15C57.99,156.2,10.47,352.17,77.21,485.97c1.42-10.86,6.92-18.49,17.64-22.06Z"/>
    <path d="m289.2,432.51c7.62-.41,14.75-.59,21.84-1.21,30.78-2.69,61.54-5.51,92.31-8.28,5.94-.54,6.15-.52,6.72-6.3,2.01-20.43,3.91-40.87,5.75-61.32,1.59-17.64,3.04-35.29,4.53-52.94,2.32-27.58,4.62-55.15,6.91-82.73.11-1.3.05-2.62.06-3.93.02-12.97,13.24-22.8,25.77-19.16,6.14,1.78,10.39,7.38,10.38,15.38-.01,9.14-.6,18.3-1.45,27.4-2.15,22.84-4.74,45.64-6.9,68.49-2.49,26.35-4.73,52.72-7.06,79.09-.88,9.91-1.71,19.82-2.6,30.19,1.75-.54,3.22-.99,4.69-1.45,5.96-1.88,11.97-3.88,18.3-2.93,8.62,1.29,14.77,6.73,19.56,13.5,2.8,3.96,1.45,8.34-1.42,12.03-2.97,3.82-7.14,5.76-11.67,7.08-8.86,2.6-17.95,3.48-27.13,3.76-1.6.05-3.19.2-5.05.32-.28,3.79-.5,7.47-.82,11.13-2.38,27.87-4.74,55.74-7.21,83.61-.69,7.81-1.13,15.71-2.73,23.34-1.85,8.79-6.89,15.41-16.47,17.18-5.86,1.08-10.93-.58-14.43-5.41-5.83-8.03-9.53-17.02-10.34-26.98-.16-1.97.27-4.57,1.48-5.98,6.63-7.74,7.49-17.2,8.35-26.6,1.96-21.44,3.67-42.91,5.48-64.37.04-.49,0-.99,0-1.87-4.63.38-9.09.73-13.54,1.13-33.98,3.01-67.95,6.06-101.93,8.97-2.95.25-4,1.01-4.17,4.19-1.43,26.53-3.11,53.04-4.66,79.56-.48,8.24-1.1,16.48-1.08,24.72.01,4.88.87,9.81,1.85,14.62,1.5,7.41-.93,12.98-7.36,16.57-3.9,2.18-8.06,4.23-12.36,5.27-6.35,1.53-11.41-1.35-14.94-6.71-3.92-5.96-5.11-12.66-4.44-19.65,1.15-12.01,2.69-23.99,3.75-36.01,1.66-18.84,3.1-37.71,4.55-56.57.55-7.2.88-14.42,1.33-22.01-4.98.53-9.73,1.21-14.51,1.5-11.75.7-23.5,1.38-35.26,1.75-6.57.21-12.73-1.64-18.23-5.37-7.39-5.01-10.36-14.44-7.05-22.7,2.74-6.81,8.53-9.29,15.22-9.37,12.37-.15,24.74.24,37.12.34,8.53.07,17.05.01,25.94.01.43-8.96,1.14-18.08,1.25-27.2.29-24.06.46-48.13.41-72.19-.04-17.51-.22-35.04-.84-52.54-.55-15.48,15.57-23.39,27.34-21.12,5.58,1.07,8.47,5.41,9.9,10.72,2.67,9.88,2.21,19.95,1.66,30.01-1.76,32.25-3.62,64.5-5.35,96.75-.6,11.24-.95,22.48-1.44,34.3Z"/>
  </g>
</svg>
