<?xml version="1.0" encoding="UTF-8"?>
<svg id="Capa_2" data-name="Capa 2" xmlns="http://www.w3.org/2000/svg" viewBox="0 0 738.5 738.52" style="fill: white;">
  <g id="Capa_1-2" data-name="Capa 1">
    <g>
      <path d="m369.3,0c204.05,0,369.26,165.44,369.2,369.7-.06,203.9-165.59,368.86-370.09,368.81C164.89,738.47-.14,572.65,0,368.35.14,165.14,165.72,0,369.3,0Zm248.4,362.2c-4.28-2.13-8.34-3.91-12.17-6.11-7.69-4.41-9.48-10.3-4.32-17.44,1.91-2.65,2.11-6.66,2.64-10.13.32-2.07.18-4.41-.49-6.39-1.37-4.06-4.83-6.06-9.42-6.08-8.17-.03-13.6-6.49-11.92-14.35.58-2.73,1.91-5.32,2.37-8.07.87-5.24,1.52-10.53,1.96-15.83.29-3.42.06-6.88.05-10.32,0-2.84-2.18-6.37-4.86-6.98-3.97-.9-8.08-2.04-12.07-1.87-6.16.28-9.95-2.6-12.57-7.52-1.05-1.97-2.17-4.7-1.6-6.57,1.8-5.87.68-11.76,1.03-17.61.05-.77-.01-1.99-.48-2.29-3.75-2.38-7.4-5.11-11.49-6.7-3.53-1.38-7.56-1.53-11.4-2-6-.73-9.08-4.1-9.17-10.15-.07-4.87.06-9.78-.56-14.59-.98-7.59-2.63-15.08-3.77-22.65-.74-4.91-1.56-5.85-6.39-7.26-4.07-1.19-7.73-3.81-12.3-3.22-.69.09-1.46-.62-2.21-.89-1.31-.48-2.62-1.13-3.98-1.32-3.92-.54-7.68-3.63-8.23-7.54-.83-5.88-1.93-11.82-1.82-17.72.12-6.82-4.55-10.37-8.57-14.08-2.96-2.73-6.27-5.98-11.04-5.82-.18,0-.36-.2-.56-.26-2.49-.74-4.95-1.65-7.49-2.15-4.27-.84-9.05-.68-11.25-5.44-.91-1.97-.87-4.36-1.6-6.44-1.88-5.34-3.88-10.63-5.96-15.9-2.5-6.32-7.78-9.82-14.49-9.82-2.4,0-4.82.2-7.19-.04-5.56-.56-10.62-2.06-13.26-7.75-.85-1.83-1.65-3.85-3.04-5.21-2.77-2.7-4.86-6.4-9.25-7.09-.73-.11-1.46-.77-2.01-1.36-5.28-5.66-12.43-6.9-19.51-7.82-2.62-.34-5.48,1.01-8.2,1.74-4.31,1.16-8.63,2.28-11.59,6.13-.7.9-1.93,1.59-3.06,1.93-4.89,1.49-7.44,5.45-9.74,9.43-2.53,4.36-5.15,8.53-10.55,9.26-4.38.6-8.97,0-13.25.94-3.49.76-8,2.13-9.72,4.75-4.71,7.18-8.23,15.15-9.14,23.97-.12,1.16-.71,2.31-1.26,3.37-2.56,4.95-7.54,4.41-11.96,5.35-4.21.9-8.65,1.68-12.36,3.67-3.67,1.97-6.7,5.26-9.71,8.26-1.85,1.84-4.09,4.07-4.5,6.42-1.15,6.55-1.56,13.24-2.03,19.9-.3,4.24-2.33,7.31-6.46,8.66-1.53.5-3.13.79-4.69,1.18-2.53.63-5.05,1.3-7.58,1.9-.9.21-1.89.13-2.74.45-2.66,1.01-5.33,2.02-7.88,3.28-1.05.52-2.21,1.53-2.57,2.57-1.05,3.06-1.95,6.22-2.51,9.41-1.9,10.74-3.78,21.49-3.22,32.5.26,5.09-3.53,8.82-8.57,9.41-3.74.44-7.54.84-11.13,1.88-3.16.91-6.15,2.54-9.04,4.16-1.44.81-3.52,2.28-3.56,3.5-.17,5.78-.87,11.93.78,17.28,1.81,5.86-5.2,15.17-10.1,15.71-5.08.57-10.16,1.25-15.23,1.88-2.31.29-5.67,3.99-5.67,6.29-.01,5.42-.45,10.9.13,16.26.48,4.46,2.37,8.74,3.26,13.18.73,3.66,1.66,7.54,1.15,11.14-.69,4.89-6.87,8.59-12.18,8.89-5.96.34-9.39,2.83-9.78,7.53-.5,6.14.23,12.19,4.01,17.54,2.99,4.23,1.83,9.73-2.61,12.51-4.86,3.05-9.9,5.8-15.28,8.92,0,.98-.11,2.65.02,4.31.67,8.34-1.96,17,2.44,24.97.09.16-.03.43.05.62.63,1.56,1.04,3.28,1.98,4.63,3.2,4.57,5.99,9.28,6.11,15.03.06,3.02-1.3,5.46-3.87,7.2-3.3,2.23-6.51,4.61-9.83,6.81-2.13,1.41-3.73,3.03-3.13,5.8.4,1.85,1.08,3.64,1.5,5.49.51,2.27.46,4.77,1.41,6.83,1.66,3.58,3.79,6.95,5.9,10.3,4.02,6.38,1.39,15.11-5.52,18.14-2.56,1.12-4.18,2.58-4.05,5.98.29,7.36,5.17,12.34,8.93,17.68,4.62,6.58,10.44,12.3,15.66,18.47,3.38,4,3.52,11.79.25,15.76-1.54,1.87-3.43,3.46-5.25,5.07-4.12,3.65-4.92,6.15-2.44,10.57.77,1.38,2.84,2.03,4.32,3.01,3.04,2.02,6.14,3.94,9.11,6.07,4.42,3.17,6.82,10.07,4.3,13.85-1.99,2.98-5.05,5.24-7.56,7.89-.7.74-1.84,2.13-1.61,2.51,1.03,1.68,2.28,3.35,3.83,4.55,1.82,1.42,3.98,2.42,6.06,3.48,5.69,2.88,11.29,5.82,17.88,6.5,2.16.23,4.3,2.31,6.11,3.93,2.63,2.36,2.13,5.78,1.78,8.76-.88,7.35,5.29,9.94,9.18,13.92,2.17,2.21,5.45,3.29,8.01,5.17,4.38,3.2,8.46,6.72,13.64,8.83,6.73,2.74,13.24,6.07,19.78,9.27,3.09,1.51,5.86,3.95,9.09,4.86,7.14,2.03,13.1,6.15,18.91,10.27,5.29,3.75,9.91,8.45,15.58,11.78,1.08.63,1.7,2.07,2.78,2.67,7.71,4.28,15.42,8.56,23.27,12.57,4.73,2.42,9.1,5.67,15.14,4.94,4.49-.54,8.39,3.99,8.65,8.58.23,4.03-1.72,6.89-4.94,9.22,22.84,5.9,96.99,5.66,109.72-.29-4.19-3.1-5.4-6.71-4.17-11.09,1.06-3.79,5.11-7.26,10.15-6.53,3.57.51,6.38-1.03,9.21-2.74.68-.41,1.43-.73,2.14-1.1,5.22-2.7,10.55-5.21,15.62-8.17,4.77-2.79,9.23-6.09,13.86-9.12,1.34-.88,2.92-1.44,4.15-2.44,4-3.21,7.61-6.98,11.89-9.74,5.58-3.6,11.39-6.82,17.68-9.33,8.41-3.37,16.06-8.65,24.46-12.07,11.21-4.57,19.93-12.63,29.56-19.41,3.69-2.6,5.84-6.47,4.76-11.41-.15-.7-.03-1.46-.02-2.19.07-5.25,3.76-9,8.99-9.38,1.7-.12,3.5-.43,5.03-1.14,5.32-2.44,10.6-4.97,15.76-7.72,2.06-1.1,3.9-2.73,5.58-4.38,1.24-1.22.72-2.37-.68-3.52-2.63-2.17-5.3-4.41-7.43-7.05-2.49-3.09-2.07-6.52-.09-9.99,3.22-5.66,9.02-8.07,14.15-11.06,2.93-1.71,5.39-6.77,4.15-8.59-1.98-2.92-4.19-5.82-6.82-8.13-4.53-3.96-6.16-11.12-2.63-15.93,2.76-3.76,6.34-6.91,9.18-10.62,4.47-5.81,8.52-11.95,12.95-17.79,2.44-3.22,3.54-6.71,3.1-10.61-.13-1.18-.98-2.55-1.92-3.31-2.1-1.7-5.2-2.58-6.59-4.66-3.01-4.53-4.4-10.82.67-17.57,2.13-2.83,3.31-6.4,4.75-9.71.71-1.64.77-3.57,1.55-5.16,2.15-4.37,1.24-8.39-2.81-11.11-2.03-1.37-4.17-2.59-6.15-4.03-3.57-2.6-7.67-5.19-6.83-10.36.59-3.61,1.64-7.55,3.74-10.42,3.48-4.74,5.8-10.08,6.51-15.47,1.02-7.78.26-15.79.26-23.37Zm-164.8,340.69c139.74-30.4,275.97-173.53,259.04-364.56C695.41,151.68,538.31,29.65,386.27,25.82c2.51,1.32,5.31,2.65,7.96,4.22,2.21,1.31,4.07,3.44,6.42,4.26,7.44,2.61,11.67,8.7,15.94,14.53,1.51,2.07,2.42,3.21,5.02,3.19,3.7-.03,7.53-.1,11.06.82,3.96,1.03,7.69,3.04,11.44,4.8,1.44.68,2.97,1.62,3.88,2.87,5.61,7.68,9.53,16.3,12.43,25.27,1.08,3.34,2.91,4.25,5.72,5.02,3.66,1,7.5,1.81,10.82,3.56,8.31,4.37,15.19,10.6,20.7,18.2,1.94,2.68,4.01,5.62,4.74,8.75,1.38,5.92,1.82,12.05,2.68,18.27,2.62,0,4.91.18,7.17-.03,10.7-1.02,16.48,5.84,21.42,13.62,2.26,3.55,3.62,7.67,5.28,11.58.49,1.15.77,2.45.84,3.69.2,3.18.02,6.39.38,9.55.68,6.1,1.58,12.18,2.5,18.25.11.72.83,1.76,1.46,1.93,4.42,1.18,8.88,2.22,13.34,3.2,4.47.99,8.98,1.75,11.51,6.32,3.19,5.76,5.96,11.65,6.16,18.39.1,3.33.02,6.67.02,10.01,0,5.02.37,5.7,5.38,5.42,8.31-.47,13.97,4.59,19.12,9.61,3.95,3.85,5.76,9.53,5.53,15.4-.43,10.86-.92,21.72-1.37,32.21,19.95,7.78,21.01,23.57,17.18,41.22,1.86.91,3.75,1.51,5.23,2.65,1.52,1.17,2.44,3.11,3.95,4.29,4.27,3.33,5.99,7.93,6.23,12.97.33,7.08.14,14.18.05,21.27-.03,2.67-.14,5.38-.65,7.99-.54,2.75-1.55,5.4-2.45,8.07-1.29,3.86-2.66,7.7-3.99,11.55.16.64,1.17,1.53,2.31,2.2,7.86,4.63,11.54,11.6,10.98,20.57-.24,3.78-2.15,7.51-2.11,11.25.08,5.9-2.68,10.34-5.64,14.9-.28.42.09,1.6.53,2.1,1.81,2.01,3.96,3.73,5.59,5.86,1.12,1.47,2,3.39,2.27,5.21,2.16,14.4-4.08,26.1-12.44,36.97-3.7,4.81-7.81,9.3-11.76,13.96,2.54,3.41,5.1,6.7,7.47,10.12.66.95,1.11,2.28,1.08,3.42-.14,5.59.79,11.2-1.95,16.67-2.32,4.63-5.04,8.74-8.87,12.06.47,2.42,1.28,4.8,1.31,7.18.08,4.74.87,9.92-.72,14.12-2.03,5.34-5.13,10.73-10.68,13.69-8.08,4.31-16.22,8.51-24.67,12.92-.39,4.18-.9,8.89-5,12.4-3.11,2.67-5.94,5.69-8.75,8.7-3.23,3.46-6.29,7.09-9.45,10.62-.39.44-.96.78-1.51,1.01-5.5,2.31-11.07,4.45-16.51,6.9-6.74,3.04-13.35,6.35-20.04,9.51-4.84,2.28-9.81,4.32-14.54,6.8-4.13,2.17-8.2,4.56-11.95,7.32-3.71,2.73-6.84,6.25-10.5,9.05-3.07,2.35-6.51,4.24-9.84,6.22-7.53,4.48-15.1,8.89-21.09,12.42ZM352.43,25.65C171.68,32.45,13.65,189.4,25.71,391.08c2.19,36.59,10.19,71.92,23.82,105.95,13.63,34.04,32.19,65.15,55.79,93.22,23.68,28.15,51.06,52.06,82.31,71.5,28.04,17.44,88.71,42.63,99.31,41.44-3.7-1.85-7.89-3.66-11.78-5.96-6.85-4.06-13.61-8.3-20.24-12.71-3.35-2.23-6.34-5.01-9.49-7.54-.08-.06-.14-.16-.22-.22-2.55-1.94-4.93-4.19-7.7-5.74-4.66-2.6-9.59-4.72-14.39-7.08-3.55-1.75-7.06-3.59-10.6-5.36-2.79-1.4-5.56-2.85-8.41-4.1-5.3-2.31-10.69-4.4-15.98-6.73-3.04-1.34-6.41-2.45-8.8-4.59-4.7-4.2-8.75-9.11-13.19-13.62-5.12-5.2-10.49-10.21-9.69-17.6-8.49-4.4-16.45-8.55-24.43-12.65-5.16-2.65-7.35-7.77-10.27-12.26-.89-1.37-1.54-3.21-1.51-4.82.1-6.13.52-12.25.82-18.49-5.29-5.34-9.77-11.57-10.26-19.91-.15-2.6-.17-5.22.03-7.82.11-1.47.48-3.1,1.28-4.29,2.29-3.45,4.85-6.72,7.49-10.31-1.59-1.48-3.4-2.74-4.64-4.41-5.03-6.8-9.93-13.7-14.78-20.63-1.21-1.73-2.64-3.6-3.01-5.58-.96-5.22-1.23-10.57-2.08-15.82-1.12-6.84,3.51-10.72,7.48-14.83,1.21-1.26,1.47-1.69.55-3.19-1.79-2.93-3.71-5.93-4.72-9.17-1.17-3.72-1.4-7.74-2.07-11.62-1.66-9.52.06-17.8,8.49-23.71,1.8-1.26,3.52-2.64,4.97-3.73-1.12-2.06-2.32-3.75-3-5.62-1-2.75-1.68-5.63-2.4-8.47-.84-3.31-2.13-6.63-2.27-9.99-.33-8.33-.13-16.68-.08-25.03,0-1.2.21-2.46.61-3.59,2.64-7.51,7.45-13.03,14.87-16.03-3.84-18.07-2.8-33.98,18.12-41.48-.77-4.63-1.94-9.34-2.24-14.1-.39-6.34-.32-12.73-.04-19.08.31-6.75,2.82-12.59,8.37-16.86,5.07-3.9,10.11-7.76,17.1-6.93.75.09,1.57-.54,2.36-.54,1.91,0,2.18-1.12,2.16-2.67-.05-3.75-.09-7.51.01-11.26.06-2.25.12-4.56.7-6.71.81-3.04,1.84-6.08,3.23-8.9,2.06-4.21,4.49-8.15,9.75-9.15,5.01-.96,9.97-2.2,14.96-3.3,2.63-.58,4.63-1.57,3.92-4.9-.21-.97.11-2.05.2-3.08.52-6.2,2.88-12.13,2-18.58-.37-2.73.7-5.82,1.71-8.54,1.29-3.49,2.85-6.98,4.88-10.08,2.55-3.9,5.13-8.19,8.76-10.86,3.02-2.22,7.54-2.61,11.48-3.3,2.7-.48,5.55-.09,8.34-.09.75-5.12,1.22-9.92,2.2-14.6.65-3.1,1.63-6.29,3.19-9.01,4.6-8,11.27-14.17,18.8-19.35,2.46-1.69,5.33-2.89,8.15-3.92,3.5-1.28,7.15-2.13,10.72-3.23.36-.11.69-.62.85-1.02,2.55-6.37,4.61-13,7.74-19.07,3.02-5.86,6.07-12.3,14.01-13.25.38-.05.75-.32,1.1-.52,4.12-2.36,8.36-4.24,13.32-3.66,1.44.17,2.94-.14,4.37.06,2.19.31,2.87-1.15,3.95-2.58,2.6-3.44,5.1-7.07,8.29-9.9,3.56-3.16,7.74-5.68,11.82-8.19,3.4-2.09,7.04-3.78,10.6-5.67Z"/>
      <path d="m453.36,411.16c4.91-1.29,9.11-2.39,13.32-3.49,3.62-.95,7.25-1.87,10.87-2.83,5.3-1.4,9.89.14,14.02,3.41,2.04,1.61,4.03,3.32,5.83,5.19,2.84,2.94,2.87,6.26-.24,8.98-1.9,1.66-4.3,2.96-6.69,3.82-9.75,3.51-19.98,3.94-30.2,4.33-2.88.11-5.78.02-8.69.02-.56,8.46-.95,16.26-1.62,24.03-1.3,15.06-2.83,30.1-4.13,45.16-1.21,13.92-2.15,27.86-3.43,41.77-.55,6-1.23,12.05-2.67,17.88-1.47,5.92-4.91,10.53-11.66,11.6-3.12.49-5.67-.35-7.51-2.75-5.7-7.44-9.06-15.88-9.96-25.21-.13-1.32.35-3.05,1.19-4.05,6.49-7.73,7.81-17.12,8.64-26.61,2.17-24.92,4.19-49.86,6.26-74.79.08-.92,0-1.85,0-3.1-45.39,4.06-90.69,8.12-136.49,12.22-.31,4.37-.72,9.2-1,14.05-1.84,31.65-3.58,63.3-5.52,94.94-.53,8.61.07,17.07,1.93,25.46.86,3.87-.43,6.88-3.58,8.93-2.95,1.91-6.04,3.74-9.29,5.03-4.86,1.92-8.39.48-11.18-4.01-3.35-5.37-4.11-11.32-3.55-17.46.89-9.65,1.99-19.28,2.94-28.93,1.46-14.83,3.07-29.65,4.24-44.51,1.28-16.32,2.13-32.67,3.16-49.01.05-.82,0-1.65,0-2.78-6.68.83-13.21,1.93-19.79,2.4-12.78.92-25.59,1.63-38.39,2.14-5.05.2-9.91-1.2-14.3-3.89-5.77-3.54-8.21-10.06-6.21-16.54,1.19-3.85,4.02-5.78,7.8-6.26,3.19-.41,6.44-.67,9.65-.62,19.29.34,38.58.8,57.87,1.2,1.86.04,3.72,0,5.89,0,.45-7.79,1.19-15.35,1.28-22.92.36-30.34.63-60.68.71-91.02.04-16.68-.42-33.37-.55-50.06-.08-9.72,9.57-17.76,19.22-16.15,3.16.53,5.07,2.7,5.68,5.58,1.08,5.07,2.47,10.25,2.39,15.36-.21,12.71-1.16,25.4-1.85,38.1-1.17,21.45-2.48,42.89-3.52,64.34-.83,17.08-1.33,34.18-1.97,51.27-.04,1.12,0,2.24,0,3.84,45.97-1.61,91.39-6.63,137.1-11.31,1.04-9.6,2.19-18.9,3.04-28.23,2.53-27.93,5.03-55.86,7.36-83.8,3.03-36.46,5.91-72.94,8.78-109.41.63-7.97,11.16-14.87,18.54-11.6,1.99.89,4.12,3.31,4.59,5.39.99,4.41,1.56,9.1,1.18,13.58-1.44,17.03-3.38,34.02-5.03,51.03-2.04,20.96-4.05,41.92-5.95,62.89-2.07,22.84-4.02,45.69-6.01,68.54-.81,9.32-1.61,18.65-2.49,28.85Z"/>
    </g>
  </g>
</svg>
